<svg width="26" height="28" viewBox="0 0 26 28" fill="none" xmlns="http://www.w3.org/2000/svg">
<path d="M14.4817 7.60629V1H6.40586C4 1 4 2.93028 4 3.57633V23.0461C4 24.481 4.99004 25 5.99004 25H20.841C21.466 25 22 24.2112 22 23.5651V8.77211H15.6094C14.9892 8.77211 14.4817 8.24749 14.4817 7.60629ZM22 6.92137V7.21769H15.9854V1H16.272C16.5727 1 16.8594 1.12144 17.0708 1.34003L21.6711 6.10045C21.8825 6.31904 22 6.61535 22 6.92137Z" fill="black"/>
<path d="M3.59702 22.6853L3.59706 2.46643C1.06139 2.46643 1.49962 4.51987 1.49962 5.20737V25.9261C1.49962 27.453 2.52567 27.4664 3.57963 27.4664H19.3889C20.0475 27.4664 20.4707 27.166 20.4707 26.4785V25.3457L5.68753 25.3381C4.1066 25.3381 3.57963 24.274 3.59702 22.6853Z" fill="black"/>
</svg>
