<svg id="svg" version="1.1" xmlns="http://www.w3.org/2000/svg" xmlns:xlink="http://www.w3.org/1999/xlink" width="400" height="471.4418604651163" viewBox="0, 0, 400,471.4418604651163"><g id="svgg"><path id="path0" d="M133.395 36.837 C 132.926 37.039,132.857 37.157,133.209 37.157 C 133.516 37.157,134.102 37.013,134.512 36.837 C 134.981 36.636,135.049 36.517,134.698 36.517 C 134.391 36.517,133.805 36.661,133.395 36.837 M225.343 48.124 C 225.627 48.810,228.064 49.837,228.342 49.387 C 228.473 49.175,228.401 49.112,228.182 49.247 C 227.964 49.382,227.728 49.366,227.660 49.212 C 227.446 48.731,225.147 47.651,225.343 48.124 M231.590 51.535 C 231.978 51.829,232.427 51.988,232.587 51.889 C 232.748 51.790,232.984 51.879,233.113 52.087 C 233.241 52.295,233.546 52.460,233.789 52.453 C 234.033 52.447,233.915 52.201,233.527 51.907 C 233.138 51.613,232.678 51.461,232.503 51.569 C 232.329 51.677,232.186 51.588,232.186 51.371 C 232.186 51.154,231.893 50.982,231.535 50.989 C 230.939 50.999,230.944 51.046,231.590 51.535 M88.406 61.731 C 87.987 62.193,87.902 62.522,88.162 62.683 C 88.380 62.817,88.579 62.834,88.605 62.720 C 88.630 62.605,88.675 62.386,88.703 62.233 C 88.732 62.079,88.888 61.744,89.051 61.488 C 89.493 60.792,89.132 60.928,88.406 61.731 M85.536 64.401 L 83.907 65.918 85.674 64.508 C 86.647 63.733,87.442 63.050,87.442 62.991 C 87.442 62.704,87.036 63.005,85.536 64.401 M65.227 83.805 C 64.383 84.895,64.331 85.337,65.137 84.568 C 65.615 84.114,65.913 83.649,65.800 83.536 C 65.687 83.423,65.429 83.544,65.227 83.805 M62.111 87.338 C 61.615 87.894,61.476 88.147,61.802 87.899 C 62.127 87.651,62.483 87.537,62.592 87.646 C 62.700 87.755,62.879 87.502,62.988 87.085 C 63.242 86.110,63.192 86.125,62.111 87.338 M295.442 273.820 C 295.442 274.071,295.286 274.180,295.095 274.062 C 294.905 273.945,294.644 274.018,294.515 274.226 C 294.387 274.434,294.533 274.605,294.840 274.605 C 295.464 274.605,296.010 273.932,295.665 273.588 C 295.542 273.465,295.442 273.570,295.442 273.820 M117.209 276.271 C 117.209 276.729,119.069 277.511,119.294 277.148 C 119.456 276.886,119.392 276.824,119.127 276.988 C 118.891 277.134,118.698 277.095,118.698 276.903 C 118.698 276.710,118.363 276.464,117.953 276.357 C 117.544 276.250,117.209 276.211,117.209 276.271 M125.217 280.571 C 125.595 281.182,126.825 281.699,127.047 281.340 C 127.161 281.154,126.747 280.826,126.126 280.609 C 125.465 280.379,125.089 280.363,125.217 280.571 M141.767 289.074 C 141.767 289.380,143.637 290.348,143.838 290.146 C 143.901 290.084,143.460 289.750,142.860 289.406 C 142.259 289.061,141.767 288.912,141.767 289.074 M147.595 335.486 C 147.014 335.801,146.603 336.122,146.681 336.200 C 146.978 336.498,148.423 335.904,148.614 335.405 C 148.854 334.780,148.905 334.776,147.595 335.486 M329.604 371.178 C 329.277 371.901,329.166 372.567,329.355 372.684 C 329.541 372.798,329.662 372.754,329.624 372.586 C 329.585 372.417,329.753 371.795,329.997 371.204 C 330.633 369.658,330.303 369.636,329.604 371.178 M81.860 386.702 C 81.860 387.029,82.104 387.539,82.401 387.836 C 82.698 388.133,82.824 388.507,82.680 388.667 C 82.536 388.826,82.626 388.837,82.880 388.691 C 83.297 388.451,83.018 387.702,81.973 386.264 C 81.911 386.178,81.860 386.376,81.860 386.702 M101.362 416.288 C 101.753 416.746,102.156 417.038,102.258 416.936 C 102.360 416.834,102.710 416.956,103.036 417.206 C 103.396 417.483,103.349 417.335,102.917 416.829 C 102.526 416.370,102.123 416.079,102.021 416.181 C 101.919 416.282,101.569 416.161,101.244 415.910 C 100.883 415.633,100.930 415.781,101.362 416.288 M113.116 427.810 C 113.116 428.239,115.350 429.891,115.596 429.644 C 115.700 429.541,115.448 429.276,115.038 429.056 C 114.627 428.836,114.026 428.392,113.703 428.069 C 113.380 427.746,113.116 427.630,113.116 427.810 M122.763 435.072 C 123.819 436.267,123.783 436.251,123.783 435.535 C 123.783 435.228,123.699 435.061,123.596 435.164 C 123.493 435.266,123.061 435.058,122.635 434.701 C 122.071 434.228,122.105 434.329,122.763 435.072 M130.229 439.624 C 130.482 439.929,130.826 440.093,130.993 439.990 C 131.161 439.886,131.403 439.972,131.531 440.180 C 131.660 440.388,131.964 440.557,132.208 440.556 C 132.452 440.554,132.149 440.221,131.535 439.814 C 130.213 438.939,129.584 438.847,130.229 439.624 M191.721 457.187 C 192.079 457.280,192.665 457.280,193.023 457.187 C 193.381 457.093,193.088 457.017,192.372 457.017 C 191.656 457.017,191.363 457.093,191.721 457.187 M202.047 457.302 C 201.280 457.548,201.247 457.606,201.860 457.632 C 202.270 457.649,202.856 457.501,203.163 457.302 C 203.815 456.881,203.362 456.881,202.047 457.302 M192.837 457.931 C 193.195 458.025,193.781 458.025,194.140 457.931 C 194.498 457.837,194.205 457.761,193.488 457.761 C 192.772 457.761,192.479 457.837,192.837 457.931 " stroke="none" fill="#040404" fill-rule="evenodd"></path><path id="path1" d="" stroke="none" fill="#141414" fill-rule="evenodd"></path><path id="path2" d="" stroke="none" fill="#1c1c1c" fill-rule="evenodd"></path><path id="path3" d="" stroke="none" fill="#0c0c0c" fill-rule="evenodd"></path><path id="path4" d="" stroke="none" fill="#272727" fill-rule="evenodd"></path><path id="path5" d="" stroke="none" fill="#080404" fill-rule="evenodd"></path><path id="path6" d="" stroke="none" fill="#041008" fill-rule="evenodd"></path><path id="path7" d="" stroke="none" fill="#04040c" fill-rule="evenodd"></path><path id="path8" d="" stroke="none" fill="#080404" fill-rule="evenodd"></path></g></svg>