<?xml version="1.0" standalone="no"?>
<!DOCTYPE svg PUBLIC "-//W3C//DTD SVG 20010904//EN"
 "http://www.w3.org/TR/2001/REC-SVG-20010904/DTD/svg10.dtd">
<svg version="1.0" xmlns="http://www.w3.org/2000/svg"
 width="1075.000000pt" height="1267.000000pt" viewBox="0 0 1075.000000 1267.000000"
 preserveAspectRatio="xMidYMid meet">

<g transform="translate(0.000000,1267.000000) scale(0.100000,-0.100000)"
fill="#000000" stroke="none">
<path d="M4044 11950 c-369 -31 -554 -82 -899 -249 -473 -229 -1022 -619
-1345 -957 -528 -551 -823 -1115 -930 -1774 -59 -369 -81 -732 -60 -1030 6
-96 14 -251 17 -345 5 -192 19 -268 64 -356 16 -34 48 -109 69 -168 140 -390
324 -688 642 -1041 197 -219 364 -343 763 -568 127 -72 249 -144 273 -161 23
-17 49 -31 57 -31 7 0 92 -42 187 -94 533 -288 1132 -595 1551 -796 192 -92
349 -171 349 -176 0 -5 -269 -122 -599 -261 -932 -394 -940 -398 -1263 -551
-387 -183 -499 -234 -594 -266 -42 -15 -116 -50 -163 -78 -48 -28 -155 -84
-239 -123 -156 -75 -184 -97 -184 -147 0 -47 212 -456 387 -747 298 -494 598
-863 868 -1068 477 -360 1144 -653 1695 -743 381 -62 910 -45 1404 46 670 122
1169 324 1600 648 134 100 341 280 452 390 180 181 460 538 623 795 82 129
113 168 166 212 79 66 113 126 150 269 14 58 51 188 80 290 91 318 145 592
170 860 20 226 39 714 31 830 -7 114 -32 315 -47 385 -25 110 -81 265 -117
321 -21 32 -53 86 -71 119 -130 232 -260 395 -447 555 -215 186 -528 381 -752
469 -63 25 -1892 857 -2057 935 -71 34 -152 80 -180 101 -63 48 -112 71 -317
146 -189 69 -296 129 -385 215 -49 48 -63 68 -63 91 0 38 20 56 160 140 228
138 443 275 865 553 749 493 2019 1344 2043 1369 13 14 22 37 22 55 0 53 -95
194 -308 456 -249 307 -718 643 -1347 966 -316 162 -633 288 -891 353 -116 30
-674 127 -834 145 -167 20 -461 27 -596 16z"/>
</g>
</svg>
